<svg xmlns="http://www.w3.org/2000/svg" xmlns:xlink="http://www.w3.org/1999/xlink" width="48" height="48" version="1.0"><defs><linearGradient id="c"><stop offset="0" style="stop-color:#000;stop-opacity:.66086954"/><stop offset=".5" style="stop-color:#000;stop-opacity:0"/><stop offset="1" style="stop-color:#000;stop-opacity:.6695652"/></linearGradient><linearGradient id="a"><stop offset="0" style="stop-color:#000;stop-opacity:.46086955"/><stop offset=".491" style="stop-color:#000;stop-opacity:0"/><stop offset=".601" style="stop-color:#000;stop-opacity:0"/><stop offset="1" style="stop-color:#000;stop-opacity:.58823532"/></linearGradient><linearGradient id="b"><stop offset="0" style="stop-color:#0ff;stop-opacity:1"/><stop offset="1" style="stop-color:#005bff;stop-opacity:1"/></linearGradient><linearGradient xlink:href="#a" id="d" x1="19.065" x2="23.078" y1="22.745" y2="26.758" gradientTransform="matrix(1.08143 0 0 1.08122 -.836 -3.532)" gradientUnits="userSpaceOnUse"/><linearGradient xlink:href="#b" id="e" x1="8.236" x2="14.967" y1="38.98" y2="40.621" gradientTransform="matrix(1.08143 0 0 1.08122 -.836 -3.532)" gradientUnits="userSpaceOnUse"/><linearGradient xlink:href="#c" id="f" x1="24.033" x2="32.349" y1="13.223" y2="21.888" gradientTransform="matrix(1.08143 0 0 1.08122 -.836 -3.532)" gradientUnits="userSpaceOnUse"/><linearGradient xlink:href="#c" id="g" x1="32.271" x2="39.818" y1="5.753" y2="12.972" gradientUnits="userSpaceOnUse"/></defs><path d="M18.156 23c-2.398 2.3-4.519 4.381-4.75 4.844-.64 1.283-.127 2.632-1.531 5.5 3.012-1.375 4.49-.825 5.594-1.438.718-.399 5.248-4.988 9.062-8.906h-8.375z" style="fill:#6e7bff;fill-opacity:1;fill-rule:evenodd;stroke:none;stroke-width:.5;stroke-linecap:butt;stroke-linejoin:round;stroke-miterlimit:4;stroke-dasharray:none;stroke-opacity:1"/><path d="M27.477 14.238S14.025 26.578 13.4 27.834c-.64 1.283-.116 2.651-1.52 5.518 3.012-1.374 4.496-.826 5.6-1.44 1.129-.627 13.758-13.755 13.758-13.755l-3.76-3.92z" style="fill:url(#d);fill-opacity:1;fill-rule:evenodd;stroke:#000;stroke-width:.5;stroke-linecap:butt;stroke-linejoin:round;stroke-miterlimit:4;stroke-dasharray:none;stroke-opacity:1"/><path d="m33.837 21.316 1.36-1.36-1.471-4.168s-.075-.562.628-.607c3.776-.24 7.645-4.697 7.831-7.73.163-2.642-2.406-4.34-4.736-4.156-2.327.183-6.154 3.286-7.108 7.2a.893.893 0 0 1-.664.664l-4.412-1.182-1.305 1.304 9.877 10.035z" style="fill:#3b3b3b;fill-opacity:1;fill-rule:evenodd;stroke:#000;stroke-width:.5;stroke-linecap:butt;stroke-linejoin:miter;stroke-opacity:1;stroke-miterlimit:4;stroke-dasharray:none"/><path d="M11.796 33.738c-1.715 3.137-6.218 9.805 0 9.75 6.121-.053 1.219-6.726 0-9.75z" style="fill:url(#e);fill-opacity:1;fill-rule:evenodd;stroke:#000;stroke-width:.5;stroke-linecap:butt;stroke-linejoin:miter;stroke-miterlimit:4;stroke-dasharray:none;stroke-opacity:1"/><path d="M11.795 35.67c-1.016 1.718-2.954 5.467-2.117 6.075l.751.546 1.366-6.621z" style="fill:#fff;fill-opacity:1;fill-rule:evenodd;stroke:none;stroke-width:1px;stroke-linecap:butt;stroke-linejoin:miter;stroke-opacity:1;opacity:.8"/><path d="m33.837 21.316 1.36-1.36-1.471-4.168c-1.99-1.978-2.336-1.934-4.049-4.63l-4.412-1.181-1.305 1.304 9.877 10.035z" style="fill:url(#f);fill-opacity:1;fill-rule:evenodd;stroke:none;stroke-width:.5;stroke-linecap:butt;stroke-linejoin:miter;stroke-opacity:1;stroke-miterlimit:4;stroke-dasharray:none"/><path d="M33.726 15.788s-.075-.562.628-.607c3.776-.24 7.645-4.697 7.831-7.73.163-2.642-2.406-4.34-4.736-4.156-2.327.183-6.154 3.286-7.108 7.2a.893.893 0 0 1-.664.664 17.235 17.235 0 0 0 4.049 4.629z" style="fill:url(#g);fill-opacity:1;fill-rule:evenodd;stroke:none;stroke-width:.5;stroke-linecap:butt;stroke-linejoin:miter;stroke-opacity:1;stroke-miterlimit:4;stroke-dasharray:none"/><path d="M39.913 4.298c-1.909-1.007-3.944-.5-6.229 1.517-2.284 2.017-3.067 4.315-2.916 5.689 2.332-3.519 5.111-6.487 9.145-7.206zM26.95 15.52 14.3 27.436v1.448l12.939-12.01-.29-1.352z" style="fill:#fff;fill-opacity:1;fill-rule:evenodd;stroke:none;stroke-width:1px;stroke-linecap:butt;stroke-linejoin:miter;stroke-opacity:1;opacity:.8"/></svg>